<svg width="16" height="16" fill="none" xmlns="http://www.w3.org/2000/svg">
  <g clip-path="url(#clip0_799_4463)">
    <path
      d="M14.203 9.86L13.02 8.678 7.696 3.354a2.509 2.509 0 00-3.548 3.548l5.324 5.327a.558.558 0 00.787 0 .558.558 0 000-.787L4.935 6.115a1.394 1.394 0 010-1.974 1.394 1.394 0 011.974 0l5.327 5.324 1.182 1.183c.98.982.98 2.57 0 3.551a2.514 2.514 0 01-3.55 0l-.99-.985-5.52-5.521-.396-.396A3.627 3.627 0 013 2.21a3.627 3.627 0 015.088-.038l5.917 5.917a.56.56 0 00.935-.251.563.563 0 00-.144-.54L8.879 1.38a4.742 4.742 0 00-6.698.007 4.742 4.742 0 00-.006 6.698l5.916 5.917.989.985a3.626 3.626 0 005.076-.05 3.629 3.629 0 00.047-5.077z"
      fill="#3556A9" />
  </g>
  <defs>
    <clipPath id="clip0_799_4463">
      <path fill="#fff" d="M0 0h16v16H0z" />
    </clipPath>
  </defs>
</svg>