<svg width="70" height="54" fill="none" xmlns="http://www.w3.org/2000/svg">
  <path opacity=".1"
    d="M57.523 27.213c2.396.708 4.582 2.055 6.556 4.039 1.973 1.984 2.96 4.96 2.96 8.93 0 3.968-1.34 7.298-4.018 9.991C60.342 52.724 57.03 54 53.081 54c-4.088 0-7.542-1.346-10.362-4.04-2.679-2.692-4.018-6.094-4.018-10.204 0-3.402.493-6.307 1.48-8.717 1.128-2.41 2.538-5.102 4.23-8.078L57.31 0H70L57.523 27.213zm-38.701 0c2.396.708 4.582 2.055 6.556 4.039 1.974 1.984 2.96 4.96 2.96 8.93 0 3.968-1.339 7.298-4.018 9.991C21.642 52.724 18.328 54 14.38 54c-4.088 0-7.542-1.346-10.362-4.04C1.34 47.269 0 43.867 0 39.757c0-3.402.493-6.307 1.48-8.717 1.128-2.41 2.538-5.102 4.23-8.078L18.61 0H31.3L18.821 27.213z"
    fill="#3556A9" />
</svg>