<svg width="16" height="16" viewBox="0 0 16 16" fill="none" xmlns="http://www.w3.org/2000/svg">
<g clip-path="url(#clip0_799_4463)">
<path d="M14.2028 9.86041L13.02 8.67767L7.69611 3.35374C6.71415 2.3812 5.12983 2.3812 4.15415 3.36002C3.17846 4.33884 3.17219 5.92316 4.14787 6.90198L9.47179 12.229C9.68826 12.4455 10.0428 12.4455 10.2592 12.229C10.4757 12.0126 10.4757 11.6581 10.2592 11.4416L4.93532 6.11453C4.38944 5.56865 4.38944 4.68708 4.93532 4.1412C5.48121 3.59531 6.36277 3.59531 6.90866 4.1412L12.2357 9.46512L13.4185 10.6479C14.3973 11.6298 14.3973 13.2173 13.4185 14.1992C12.4365 15.1781 10.849 15.1781 9.86709 14.1992L8.87885 13.2141L3.35728 7.69257L2.96199 7.29727C1.5816 5.8761 1.60042 3.611 2.99964 2.20865C4.39885 0.809431 6.66709 0.790607 8.08826 2.171L14.0051 8.08786C14.1463 8.22904 14.3502 8.28237 14.5447 8.23218C14.7361 8.18198 14.8867 8.03139 14.94 7.83688C14.9902 7.64551 14.9369 7.43845 14.7957 7.29727L8.87885 1.38041C7.02474 -0.464295 4.02866 -0.461158 2.18081 1.38669C0.332971 3.23453 0.329834 6.23061 2.17454 8.08473L8.0914 14.0016L9.07964 14.9867C10.504 16.3545 12.7596 16.3326 14.1557 14.9365C15.5487 13.5404 15.5706 11.2847 14.2028 9.86041Z" fill="#3556A9"/>
</g>
<defs>
<clipPath id="clip0_799_4463">
<rect width="16" height="16" fill="white"/>
</clipPath>
</defs>
</svg>
