<svg width="99" height="40" viewBox="0 0 99 40" fill="none" xmlns="http://www.w3.org/2000/svg">
<g clip-path="url(#clip0_798_10184)">
<path fill-rule="evenodd" clip-rule="evenodd" d="M26.0646 38.8375C25.8185 39.0349 25.513 39.139 25.2003 39.132C25.0401 39.1408 24.88 39.1142 24.7308 39.054C24.5817 38.9937 24.447 38.9013 24.336 38.7829C24.1298 38.5381 24.015 38.2266 24.0117 37.9035C24.0085 37.5805 24.117 37.2666 24.3182 37.0175C24.4205 36.9089 24.5438 36.8234 24.6803 36.7663C24.8168 36.7092 24.9634 36.6819 25.1108 36.686C25.3988 36.6947 25.679 36.7838 25.9211 36.9435L26.3166 36.2423C25.9771 35.9577 25.549 35.8071 25.1102 35.8181C24.8318 35.8026 24.5534 35.847 24.2928 35.9482C24.0323 36.0495 23.7954 36.2054 23.5973 36.406C23.2333 36.8182 23.0397 37.3587 23.0573 37.9138C23.0431 38.1926 23.0872 38.4712 23.1866 38.7312C23.2859 38.9912 23.4383 39.2266 23.6335 39.4217C23.8307 39.6115 24.0628 39.7596 24.3162 39.8575C24.5696 39.9554 24.8394 40.0011 25.1102 39.992C25.3679 39.9973 25.6244 39.9537 25.8666 39.8635C26.0717 39.7935 26.2571 39.6735 26.4067 39.5138L26.0646 38.8375ZM28.0274 36.7599V39.9223H28.9297V36.7599H30.1153V35.8957H26.8388V36.7599H28.0245H28.0274ZM31.8457 38.5617C31.9358 38.5617 32.0799 38.5799 32.2779 38.5799C32.6703 38.5939 33.0522 38.4485 33.3402 38.1757C33.4687 38.054 33.5704 37.9058 33.6387 37.741C33.707 37.5761 33.7402 37.3983 33.7362 37.2193C33.741 37.0419 33.7098 36.8653 33.6448 36.7008C33.5797 36.5362 33.4821 36.3871 33.358 36.2629C33.1917 36.1205 32.9996 36.013 32.7925 35.9468C32.5855 35.8805 32.3677 35.8568 32.1516 35.8769C32.0437 35.8769 31.8274 35.8769 31.5031 35.8957H30.9452V39.9229H31.8457V38.5617ZM32.2417 36.7435C32.3094 36.7294 32.3793 36.7313 32.4461 36.7492C32.5129 36.7671 32.5748 36.8004 32.627 36.8466C32.6792 36.8928 32.7203 36.9507 32.7471 37.0157C32.774 37.0808 32.7858 37.1513 32.7818 37.2217C32.7857 37.2913 32.7745 37.3608 32.7491 37.4254C32.7237 37.49 32.6847 37.5481 32.6348 37.5956C32.5849 37.643 32.5255 37.6787 32.4606 37.6999C32.3957 37.7212 32.3271 37.7276 32.2595 37.7187C32.1206 37.7148 31.982 37.7024 31.8445 37.6817V36.7599C32.0965 36.7599 32.2228 36.7417 32.2405 36.7417L32.2417 36.7435ZM34.4571 37.9205C34.4459 38.2004 34.493 38.4796 34.5952 38.7395C34.6974 38.9994 34.8524 39.2342 35.0499 39.4284C35.4642 39.8094 36.0057 40.0135 36.5628 39.9987C37.1177 40.0125 37.6553 39.8009 38.0578 39.4102C38.4391 39.005 38.652 38.4646 38.652 37.9023C38.652 37.3401 38.4391 36.7997 38.0578 36.3944C37.6522 36.0109 37.115 35.8062 36.5628 35.8248C36.2831 35.8116 36.0039 35.8588 35.7432 35.9632C35.4826 36.0676 35.2464 36.2269 35.0499 36.4308C34.854 36.6224 34.6999 36.8542 34.5978 37.1109C34.4956 37.3676 34.4477 37.6435 34.4571 37.9205ZM35.4293 37.9205C35.4188 37.7598 35.4406 37.5987 35.4933 37.4469C35.546 37.2952 35.6285 37.156 35.7358 37.0381C35.8433 36.9247 35.9724 36.8352 36.1152 36.7751C36.258 36.7149 36.4113 36.6854 36.5657 36.6884C36.7169 36.6874 36.8668 36.7179 37.0061 36.778C37.1454 36.8382 37.2713 36.9266 37.3761 37.0381C37.486 37.1549 37.5715 37.2934 37.6272 37.4451C37.683 37.5968 37.7079 37.7586 37.7004 37.9205C37.7098 38.238 37.6002 38.5472 37.3939 38.7848C37.2911 38.9042 37.1627 38.9978 37.0188 39.0584C36.8749 39.1189 36.7192 39.1447 36.5639 39.1338C36.4122 39.139 36.2612 39.1105 36.1213 39.0502C35.9814 38.99 35.8559 38.8994 35.7536 38.7848C35.5404 38.5503 35.4242 38.2406 35.4293 37.9205ZM42.201 37.4241V39.9248H43.1015V35.8957H42.3089L40.5619 38.3969V35.8957H39.6596V39.9229H40.454L42.201 37.4241ZM45.2807 39.9248V37.3666L46.3792 38.9296H46.5048L47.6033 37.3666V39.9223H48.5044V35.8957H47.6579L46.5054 37.5878L45.2807 35.8957H44.3802V39.9229H45.2807V39.9248ZM54.0543 38.8399C53.8135 39.0344 53.5147 39.1384 53.2078 39.1344C53.0476 39.1433 52.8875 39.1167 52.7383 39.0564C52.5892 38.9962 52.4545 38.9037 52.3435 38.7854C52.2326 38.6722 52.1452 38.5373 52.0864 38.3888C52.0276 38.2404 51.9987 38.0813 52.0014 37.9211C51.9907 37.7561 52.014 37.5907 52.0699 37.4355C52.1257 37.2804 52.2129 37.139 52.3257 37.0205C52.4269 36.9105 52.5501 36.824 52.6868 36.7669C52.8235 36.7097 52.9707 36.6831 53.1183 36.689C53.4063 36.6978 53.6865 36.7868 53.9287 36.9466L54.3217 36.2423C53.9823 35.9577 53.5542 35.8071 53.1153 35.8181C52.8341 35.801 52.5526 35.8445 52.2889 35.9457C52.0252 36.047 51.7853 36.2038 51.5847 36.406C51.2206 36.8182 51.0271 37.3587 51.0446 37.9138C51.0347 38.1921 51.0806 38.4695 51.1798 38.7289C51.2789 38.9882 51.429 39.2241 51.6208 39.4217C51.9256 39.6905 52.2942 39.8727 52.6895 39.9502C53.0848 40.0276 53.4931 39.9975 53.8735 39.8629C54.0758 39.7978 54.2566 39.6768 54.3958 39.5132L54.0543 38.8399ZM59.3132 35.8981L58.5206 37.866L57.4037 35.8981H56.396L58.089 38.7854L58.0351 38.8957C58.0094 38.9501 57.968 38.9951 57.9165 39.0247C57.865 39.0543 57.8058 39.067 57.747 39.0611C57.6453 39.0535 57.5467 39.022 57.4589 38.969L57.1476 39.7393C57.3244 39.8562 57.53 39.9192 57.7405 39.9211C58.0075 39.9093 58.2638 39.81 58.4713 39.6377C58.6789 39.4655 58.8267 39.2295 58.8929 38.9648L60.2255 35.8938H59.3073L59.3132 35.8981ZM61.9607 39.9254V37.3666L63.0592 38.9296H63.1855L64.2839 37.3666V39.9223H65.1844V35.8957H64.3379L63.1825 37.5878L61.9577 35.8957H61.0602V39.9229H61.9607V39.9254ZM66.1928 37.9211C66.1787 38.1999 66.2228 38.4785 66.3222 38.7385C66.4215 38.9984 66.5738 39.2338 66.769 39.429C67.1834 39.81 67.7248 40.0141 68.2819 39.9993C68.8368 40.013 69.3743 39.8014 69.777 39.4108C70.1581 39.0055 70.3709 38.4651 70.3709 37.9029C70.3709 37.3407 70.1581 36.8003 69.777 36.3951C69.3713 36.0116 68.8341 35.8069 68.2819 35.8254C68.0022 35.8122 67.723 35.8594 67.4624 35.9638C67.2017 36.0682 66.9655 36.2276 66.769 36.4314C66.5754 36.624 66.424 36.8563 66.3247 37.1131C66.2253 37.3699 66.1804 37.6453 66.1928 37.9211ZM67.1472 37.9211C67.1397 37.7592 67.1646 37.5974 67.2203 37.4457C67.2761 37.294 67.3616 37.1555 67.4715 37.0387C67.5741 36.9243 67.6996 36.8339 67.8394 36.7736C67.9793 36.7132 68.1302 36.6844 68.2819 36.689C68.4331 36.688 68.5829 36.7185 68.7223 36.7786C68.8616 36.8387 68.9875 36.9272 69.0923 37.0387C69.2022 37.1555 69.2877 37.294 69.3434 37.4457C69.3992 37.5974 69.4241 37.7592 69.4165 37.9211C69.4262 38.2387 69.3165 38.5479 69.11 38.7854C69.0085 38.9064 68.8803 39.0011 68.7361 39.0618C68.5918 39.1225 68.4356 39.1474 68.2801 39.1344C68.1284 39.1397 67.9773 39.1112 67.8374 39.0509C67.6975 38.9906 67.5721 38.9 67.4697 38.7854C67.2564 38.551 67.1402 38.2412 67.1455 37.9211H67.1472ZM72.2798 39.9254V37.3666L73.3789 38.9296H73.5046L74.6031 37.3666V39.9223H75.5035V35.8957H74.657L73.5046 37.5878L72.2798 35.8957H71.3752V39.9229H72.2757L72.2798 39.9254Z" fill="#3E3E3E"/>
<path fill-rule="evenodd" clip-rule="evenodd" d="M65.7929 18.6842H59.9033V12.8L65.7929 18.6842ZM55.6172 4.26788V1.05137e-07H59.9033V8.57091L69.9888 18.703H75.8796L65.7745 8.57091L74.2932 1.05137e-07H68.4244L59.9033 8.57091L55.6172 4.26788ZM27.4141 18.7212L23.128 18.703V1.05137e-07L27.4141 4.26606V4.30303L35.8427 12.7818L41.5159 7.1L47.2971 7.13697C47.4746 7.13864 47.6507 7.10364 47.8147 7.03407C47.9787 6.96451 48.1273 6.8618 48.2515 6.73212C48.4942 6.47557 48.6298 6.13265 48.6298 5.77576C48.6298 5.41887 48.4942 5.07595 48.2515 4.81939V4.80121C47.9937 4.55191 47.6519 4.41366 47.2971 4.41515C44.8298 4.41515 42.4704 4.39697 40.0055 4.39697L35.8451 8.57091V1.05137e-07H47.2971C48.7964 -0.000292009 50.2344 0.608136 51.295 1.69152V1.7097C51.8205 2.24151 52.2377 2.87448 52.5226 3.57206C52.8075 4.26964 52.9544 5.018 52.9549 5.77394C52.9556 6.25834 52.9001 6.74111 52.7895 7.21212C53.9867 7.39576 55.0963 7.96222 55.9593 8.8303C56.7491 9.63812 57.2868 10.6673 57.5043 11.7876C57.7219 12.9078 57.6096 14.0689 57.1817 15.124C56.7537 16.179 56.0293 17.0806 55.1001 17.7146C54.1708 18.3487 53.0785 18.6868 51.9613 18.6861L40.0736 18.703L44.4859 14.2715H51.9613C52.3131 14.2662 52.649 14.1209 52.8977 13.8665C53.1464 13.6122 53.2883 13.2687 53.2934 12.9091C53.2932 12.7308 53.2581 12.5544 53.1901 12.3902C53.1221 12.226 53.0225 12.0775 52.8974 11.9533C52.6487 11.6988 52.3126 11.5536 51.9607 11.5485H42.9743L40.2728 14.2697L35.8605 18.703L27.4141 10.2261V18.7212ZM3.15492 30.4345C2.87691 30.6548 2.53376 30.7715 2.18211 30.7655C1.99331 30.7736 1.80487 30.7421 1.6284 30.673C1.45193 30.6039 1.29115 30.4986 1.15595 30.3636C0.891845 30.0752 0.749567 29.6919 0.759953 29.297C0.748495 29.1022 0.776138 28.9071 0.841182 28.7237C0.906225 28.5402 1.00729 28.3723 1.13817 28.2303C1.26247 28.0955 1.41367 27.9896 1.58151 27.9197C1.74935 27.8499 1.92992 27.8177 2.11098 27.8255C2.43726 27.8206 2.75735 27.9168 3.02925 28.1012L3.35352 27.5497C3.00476 27.2546 2.56079 27.1033 2.10861 27.1255C1.82317 27.1087 1.53751 27.1541 1.2705 27.2586C1.00348 27.3631 0.761175 27.5243 0.559582 27.7315C0.188895 28.1629 -0.0103336 28.7205 0.00115054 29.2945C-0.0117698 29.5829 0.0342776 29.8708 0.136351 30.14C0.238425 30.4091 0.394281 30.6535 0.593965 30.8576C0.794994 31.0602 1.03455 31.2186 1.29783 31.3228C1.5611 31.4271 1.8425 31.475 2.12461 31.4636C2.60531 31.4737 3.073 31.3036 3.43947 30.9855L3.15492 30.4345ZM5.65838 27.8788V31.3939H6.37865V27.8788H7.71189V27.1982H4.32692V27.8788H5.65838ZM9.7488 29.883H10.2889C10.4878 29.8961 10.6874 29.8687 10.8759 29.8025C11.0645 29.7362 11.2383 29.6324 11.3873 29.497C11.5184 29.3764 11.6231 29.2288 11.6946 29.064C11.7661 28.8992 11.8028 28.7209 11.8023 28.5406C11.8023 27.8418 11.4063 27.18 10.2017 27.18C10.1116 27.18 9.89522 27.18 9.58933 27.1982H9.02616V31.3909H9.74643V29.883H9.7488ZM10.2687 27.8788C10.3617 27.8559 10.4586 27.8555 10.5517 27.8777C10.6448 27.8999 10.7316 27.944 10.8051 28.0065C10.8786 28.069 10.9369 28.1482 10.9752 28.2378C11.0135 28.3273 11.0308 28.4248 11.0257 28.5224C11.0289 28.6208 11.0107 28.7187 10.9725 28.8091C10.9342 28.8995 10.8769 28.98 10.8046 29.0451C10.7323 29.1101 10.6467 29.1579 10.5542 29.1851C10.4616 29.2123 10.3643 29.2182 10.2693 29.2024C10.1074 29.2024 9.94502 29.1842 9.74702 29.1661V27.8788H10.2687ZM12.9701 29.2952C12.9581 29.5852 13.0065 29.8745 13.1121 30.1439C13.2176 30.4134 13.378 30.6569 13.5825 30.8582C14.0005 31.2516 14.5488 31.4685 15.117 31.4651C15.6851 31.4617 16.2309 31.2384 16.6444 30.84C17.0369 30.4223 17.2562 29.8656 17.2562 29.2864C17.2562 28.7071 17.0369 28.1504 16.6444 27.7327C16.2265 27.3392 15.6782 27.1222 15.11 27.1256C14.5418 27.1289 13.996 27.3524 13.5825 27.7509C13.381 27.9507 13.2225 28.1913 13.117 28.4573C13.0116 28.7233 12.9616 29.0083 12.9701 29.2952ZM13.7444 29.2952C13.7278 28.9025 13.8638 28.5191 14.1226 28.2285C14.2515 28.0948 14.406 27.9898 14.5765 27.9201C14.7469 27.8505 14.9297 27.8176 15.1132 27.8236C15.2941 27.816 15.4746 27.8482 15.6423 27.918C15.8101 27.9879 15.9612 28.0938 16.0854 28.2285C16.2224 28.3677 16.33 28.5342 16.4014 28.7177C16.4728 28.9012 16.5065 29.0978 16.5004 29.2952C16.5136 29.6816 16.3778 30.058 16.1221 30.343C15.9956 30.4859 15.8394 30.598 15.6651 30.6714C15.4908 30.7448 15.3026 30.7776 15.1144 30.7673C14.9318 30.7738 14.75 30.7392 14.582 30.6659C14.414 30.5926 14.2638 30.4823 14.1421 30.343C14.0095 30.2054 13.906 30.0413 13.8378 29.8611C13.7697 29.6808 13.7385 29.4882 13.7461 29.2952H13.7444ZM21.5606 28.4121V31.3909H22.2809V27.1982H21.6513L19.4899 30.177V27.1982H18.7697V31.3909H19.4182L21.5606 28.4121ZM24.929 27.8788V31.3939H25.6493V27.8788H26.9819V27.1982H23.5934V27.8788H24.926H24.929ZM30.7463 31.3939V30.6921H29.017V29.6255H30.5115V28.9267H29.017V27.8788H30.674V27.1982H28.2968V31.3909H30.7463V31.3939ZM35.5007 31.3939V27.1982H32.9249L32.8531 28.0255C32.825 28.7155 32.7216 29.4001 32.5449 30.0667C32.5052 30.2135 32.4379 30.351 32.3469 30.4715C32.3097 30.5469 32.2477 30.6064 32.1718 30.6397C32.0959 30.673 32.0109 30.6778 31.9319 30.6533L31.9141 31.3891C32.7245 31.4994 33.2646 31.1133 33.4987 28.6673L33.5912 27.8788H34.7798V31.3939H35.5007ZM38.473 29.2945C38.5728 29.2715 38.6763 29.2717 38.7759 29.2952C38.8755 29.3187 38.9687 29.3649 39.0485 29.4303C39.1282 29.4957 39.1925 29.5787 39.2366 29.673C39.2807 29.7673 39.3033 29.8706 39.303 29.9752C39.3088 30.0849 39.2897 30.1946 39.2472 30.2956C39.2047 30.3965 39.1399 30.4861 39.058 30.5573C38.976 30.6284 38.8791 30.6793 38.7747 30.7058C38.6704 30.7324 38.5614 30.7339 38.4564 30.7103C38.4564 30.7103 38.3124 30.7103 38.0604 30.6921V29.3333C38.2383 29.3152 38.3847 29.297 38.4754 29.297L38.473 29.2945ZM37.3384 27.1982V31.3909H37.7889C38.0231 31.4091 38.2211 31.4091 38.3651 31.4091C39.4458 31.4091 40.076 30.8576 40.076 29.9545C40.076 29.1061 39.5537 28.5939 38.527 28.5939C38.3703 28.5964 38.2139 28.6087 38.0586 28.6309V27.1982H37.3372H37.3384ZM44.9027 31.3909V27.1982H44.199V28.9091H42.3079V27.1982H41.5877V31.3909H42.3079V29.6073H44.199V31.3909H44.9015H44.9027ZM46.9378 31.3909L47.37 30.3242H49.117L49.5492 31.3909H50.3234L48.5764 27.18H47.945L46.198 31.3909H46.936H46.9378ZM48.8467 29.6255H47.6391L48.2319 28.1358L48.8467 29.6255ZM54.1956 31.3909V27.1982H53.69C53.438 27.18 53.2578 27.18 53.1677 27.18C52.7118 27.14 52.2587 27.2852 51.9068 27.5842C51.7658 27.7174 51.6542 27.8798 51.5797 28.0606C51.5051 28.2415 51.4693 28.4366 51.4746 28.6327C51.4764 28.8754 51.5448 29.1127 51.6722 29.3175C51.7996 29.5223 51.9807 29.6863 52.1949 29.7909L51.1504 31.3909H51.9607L52.8784 29.9394H53.4712V31.3939H54.1945L54.1956 31.3909ZM52.8091 29.2576C52.6495 29.2329 52.5037 29.1508 52.3981 29.026C52.2924 28.9012 52.2338 28.742 52.2328 28.577C52.2344 28.4752 52.2567 28.3749 52.2983 28.2824C52.34 28.1899 52.4 28.1073 52.4745 28.0398C52.5491 27.9724 52.6366 27.9216 52.7314 27.8906C52.8263 27.8596 52.9264 27.8492 53.0254 27.86C53.1155 27.86 53.2774 27.8782 53.476 27.8782V29.2576H52.8079H52.8091ZM60.8233 31.3909V29.2212L62.498 31.3909H63.4163L61.6153 29.1485L63.3084 27.1994H62.4441L60.8221 29.1842V27.1982H60.1019V31.3909H60.8221H60.8233ZM64.1911 29.2945C64.179 29.5846 64.2274 29.8739 64.3329 30.1434C64.4385 30.4128 64.5989 30.6563 64.8035 30.8576C65.0054 31.0589 65.2452 31.2164 65.5082 31.3205C65.7713 31.4247 66.0522 31.4734 66.3341 31.4636C66.617 31.4684 66.898 31.4156 67.1608 31.3084C67.4236 31.2011 67.6629 31.0415 67.8648 30.8388C68.2573 30.4211 68.4765 29.8644 68.4765 29.2852C68.4765 28.7059 68.2573 28.1492 67.8648 27.7315C67.6619 27.5315 67.422 27.3749 67.1592 27.2708C66.8963 27.1668 66.6159 27.1173 66.3341 27.1255C66.0482 27.119 65.764 27.171 65.498 27.2783C65.232 27.3856 64.9897 27.5461 64.7851 27.7503C64.5898 27.9539 64.4366 28.1956 64.3348 28.461C64.2329 28.7264 64.1845 29.0101 64.1923 29.2952L64.1911 29.2945ZM64.9653 29.2945C64.9489 28.9019 65.0848 28.5185 65.3435 28.2279C65.4724 28.0943 65.627 27.9893 65.7974 27.9196C65.9679 27.85 66.1506 27.8171 66.3341 27.823C66.5152 27.8154 66.6957 27.8476 66.8635 27.9175C67.0313 27.9873 67.1825 28.0932 67.3069 28.2279C67.4411 28.3683 67.5455 28.5355 67.6137 28.719C67.6818 28.9025 67.7122 29.0985 67.7029 29.2945C67.7225 29.6787 67.5929 30.0553 67.3425 30.3424C67.2159 30.4853 67.0598 30.5975 66.8855 30.6709C66.7111 30.7443 66.523 30.777 66.3347 30.7667C66.1494 30.7734 65.9649 30.7389 65.7939 30.6657C65.6228 30.5924 65.4694 30.4822 65.3441 30.3424C65.0886 30.0573 64.9522 29.681 64.9653 29.2945ZM70.7103 31.3909V28.3752L72.0251 30.2139H72.133L73.4301 28.357V31.3909H74.1504V27.1982H73.4657L72.133 29.1473L70.7286 27.1982H69.99V31.3909H70.7103ZM79.2468 31.3909V27.1982H75.9691V31.3909H76.6894V27.8788H78.5271V31.3939H79.2474L79.2468 31.3909ZM81.2624 31.3909L81.6945 30.3242H83.4593L83.8743 31.3909H84.6485L82.9199 27.18H82.2713L80.5427 31.3909H81.2624ZM83.1712 29.6255H81.9649L82.5772 28.1358L83.1712 29.6255ZM89.2588 31.3909V27.1982H88.5564V28.9091H86.6688V27.1982H85.9456V31.3909H86.6688V29.6073H88.5599V31.3909H89.2624H89.2588ZM93.887 28.4121V31.3909H94.6072V27.1982H93.9771L91.8162 30.177V27.1982H91.0954V31.3909H91.7261L93.887 28.4121ZM99.0017 31.3909V27.1982H98.4973C98.2453 27.18 98.0651 27.18 97.9756 27.18C97.5197 27.1401 97.0667 27.2853 96.7147 27.5842C96.5736 27.7174 96.4621 27.8798 96.3876 28.0606C96.313 28.2415 96.2772 28.4366 96.2825 28.6327C96.2843 28.8754 96.3527 29.1127 96.4801 29.3175C96.6074 29.5223 96.7886 29.6863 97.0028 29.7909L95.9582 31.3909H96.7686L97.6869 29.9364H98.2797V31.3909H99H99.0017ZM97.6329 29.2576C97.4733 29.2329 97.3276 29.1508 97.222 29.026C97.1163 28.9012 97.0577 28.742 97.0567 28.577C97.0562 28.4762 97.0764 28.3765 97.1161 28.2842C97.1559 28.192 97.2141 28.1094 97.2872 28.0417C97.3603 27.9741 97.4464 27.9229 97.5401 27.8916C97.6338 27.8603 97.7329 27.8495 97.8309 27.86C97.9394 27.86 98.0835 27.8782 98.2815 27.8782V29.2576H97.6359H97.6329Z" fill="#3E3E3E"/>
</g>
<defs>
<clipPath id="clip0_798_10184">
<rect width="99" height="40" fill="white"/>
</clipPath>
</defs>
</svg>
