<svg width="70" height="54" viewBox="0 0 70 54" fill="none" xmlns="http://www.w3.org/2000/svg">
<path opacity="0.1" d="M57.5227 27.2126C59.9194 27.9213 62.1047 29.2677 64.0786 31.252C66.0524 33.2362 67.0393 36.2126 67.0393 40.1811C67.0393 44.1496 65.6999 47.4803 63.0211 50.1732C60.3424 52.7244 57.0292 54 53.0816 54C48.993 54 45.5388 52.6535 42.719 49.9606C40.0403 47.2677 38.7009 43.8661 38.7009 39.7559C38.7009 36.3543 39.1944 33.4488 40.1813 31.0394C41.3092 28.6299 42.719 25.937 44.4109 22.9606L57.3112 0H70L57.5227 27.2126ZM18.8218 27.2126C21.2185 27.9213 23.4038 29.2677 25.3776 31.252C27.3515 33.2362 28.3384 36.2126 28.3384 40.1811C28.3384 44.1496 26.999 47.4803 24.3202 50.1732C21.6415 52.7244 18.3283 54 14.3807 54C10.292 54 6.83787 52.6535 4.01813 49.9606C1.33938 47.2677 0 43.8661 0 39.7559C0 36.3543 0.493454 33.4488 1.48036 31.0394C2.60826 28.6299 4.01813 25.937 5.70997 22.9606L18.6103 0H31.2991L18.8218 27.2126Z" fill="#3556A9"/>
</svg>
