<svg width="96" height="126" fill="none" xmlns="http://www.w3.org/2000/svg"><path d="M93.661 32.752C89.222 18.408 77.553 6.735 63.21 2.296 48.027-2.407 31.874.206 19.544 9.292 7.306 18.314 0 32.766 0 47.952 0 58.426 3.314 68.378 9.581 76.73L48.003 126l38.42-49.273c9.38-12.506 12.02-28.534 7.238-43.975zM48.003 73.8c-14.251 0-25.848-11.597-25.848-25.848 0-14.25 11.597-25.847 25.848-25.847 14.25 0 25.847 11.596 25.847 25.847 0 14.25-11.597 25.848-25.847 25.848z" fill="#3556A9"/><path d="M47.777 18C31.36 18 18 31.297 18 47.738c0 16.44 13.359 29.817 29.777 29.817 16.419 0 29.778-13.377 29.778-29.817C77.555 31.298 64.195 18 47.777 18z" fill="#3556A9"/><path d="M58.775 56.684h5.89l-5.89-5.884v5.884zM54.49 42.268V38h4.285v8.57L67.296 38h5.87l-8.52 8.57 10.106 10.133H68.86L58.775 46.571l-4.286-4.303zM22 56.703l4.286.018v-8.495l8.447 8.477 4.412-4.433 2.701-2.722h8.987c.352.006.688.15.936.405a1.337 1.337 0 01.396.956c-.005.36-.147.703-.395.958a1.34 1.34 0 01-.937.405h-7.475l-4.412 4.431 11.887-.017a5.56 5.56 0 003.139-.971 5.748 5.748 0 002.082-2.591 5.894 5.894 0 00.322-3.336 5.815 5.815 0 00-1.545-2.958 5.686 5.686 0 00-3.17-1.618 6.21 6.21 0 00.166-1.438c0-.756-.148-1.504-.432-2.202a5.732 5.732 0 00-1.228-1.862v-.019A5.593 5.593 0 0046.169 38H34.717v8.57l4.16-4.173c2.465 0 4.825.018 7.292.018a1.37 1.37 0 01.955.386v.018a1.397 1.397 0 01-.001 1.913 1.318 1.318 0 01-.954.405l-5.781-.037-5.673 5.682-8.429-8.479v-.037L22 38v18.703z" fill="#fff"/></svg>