<svg xmlns="http://www.w3.org/2000/svg" xmlns:xlink="http://www.w3.org/1999/xlink">
  <symbol id="logo" viewBox="0 0 99 40">
    <g>
      <g clip-path="url(#clip0_798_10184)" fill-rule="evenodd" clip-rule="evenodd">
        <path
          d="M26.065 38.837a1.333 1.333 0 01-.865.295 1.094 1.094 0 01-.864-.35 1.389 1.389 0 01-.018-1.765 1.059 1.059 0 01.793-.331c.288.009.568.098.81.258l.396-.702a1.807 1.807 0 00-1.207-.424 1.957 1.957 0 00-.817.13c-.26.102-.498.257-.696.458a2.175 2.175 0 00-.54 1.508 2.004 2.004 0 00.577 1.508 2.015 2.015 0 001.477.57 2.06 2.06 0 00.756-.128c.205-.07.39-.19.54-.35l-.342-.677zm1.962-2.077v3.162h.903V36.76h1.185v-.864H26.84v.864h1.188zm3.819 1.802c.09 0 .234.018.432.018.392.014.774-.131 1.062-.404a1.266 1.266 0 00.396-.957 1.315 1.315 0 00-.378-.956 1.635 1.635 0 00-1.206-.386c-.108 0-.325 0-.649.019h-.558v4.027h.9v-1.361zm.396-1.819a.441.441 0 01.385.104.46.46 0 01.155.375.483.483 0 01-.147.374.46.46 0 01-.375.123 3.436 3.436 0 01-.415-.037v-.922c.252 0 .378-.018.395-.018l.002.002zm2.215 1.177c-.011.28.036.56.138.82.102.26.257.494.455.688a2.15 2.15 0 001.513.57 2.072 2.072 0 001.495-.588 2.2 2.2 0 00.594-1.508c0-.562-.213-1.102-.594-1.508a2.074 2.074 0 00-1.495-.57 1.956 1.956 0 00-.82.14c-.26.104-.497.263-.693.467-.196.191-.35.423-.452.68-.102.257-.15.533-.14.81zm.972 0a1.205 1.205 0 01.307-.882 1.123 1.123 0 01.83-.35 1.093 1.093 0 01.81.35 1.195 1.195 0 01.324.883c.01.317-.1.626-.306.864a.994.994 0 01-.83.349 1.029 1.029 0 01-.81-.35 1.256 1.256 0 01-.325-.864zm6.772-.496v2.5h.9v-4.028h-.792l-1.747 2.5v-2.5h-.902v4.027h.794l1.747-2.499zm3.08 2.5v-2.557l1.098 1.563h.126l1.098-1.563v2.555h.901v-4.026h-.846l-1.153 1.692-1.224-1.692h-.9v4.027h.9v.002zm8.773-1.084a1.32 1.32 0 01-.846.294 1.09 1.09 0 01-.864-.349 1.195 1.195 0 01-.343-.864 1.204 1.204 0 01.325-.9 1.03 1.03 0 01.792-.332c.288.009.569.098.81.258l.394-.705a1.806 1.806 0 00-1.207-.424 1.971 1.971 0 00-1.53.588 2.175 2.175 0 00-.54 1.508 2.076 2.076 0 00.576 1.508c.305.269.673.45 1.069.528a2.25 2.25 0 001.184-.087c.202-.065.383-.186.522-.35l-.342-.673zm5.26-2.942l-.793 1.968-1.117-1.968h-1.008l1.693 2.887-.054.11a.293.293 0 01-.118.13.283.283 0 01-.17.036.651.651 0 01-.288-.092l-.311.77c.176.117.382.18.592.182a1.23 1.23 0 00.731-.283c.208-.172.356-.408.422-.673l1.332-3.071h-.918l.006.004zm2.647 4.027v-2.558l1.098 1.563h.127l1.098-1.563v2.555h.9v-4.026h-.846l-1.155 1.692-1.225-1.692h-.898v4.027h.9v.002zm4.232-2.004a2.006 2.006 0 00.576 1.508 2.15 2.15 0 001.513.57 2.073 2.073 0 001.495-.588c.381-.406.594-.946.594-1.508s-.213-1.103-.594-1.508a2.075 2.075 0 00-1.495-.57 1.955 1.955 0 00-.82.139c-.26.104-.496.264-.693.467a1.991 1.991 0 00-.576 1.49zm.954 0a1.217 1.217 0 01.325-.882 1.057 1.057 0 01.81-.35 1.094 1.094 0 01.81.35 1.195 1.195 0 01.325.882c.01.318-.1.627-.307.864a.967.967 0 01-.83.349 1.028 1.028 0 01-.81-.349 1.254 1.254 0 01-.325-.864h.002zm5.133 2.004v-2.558l1.099 1.563h.126l1.098-1.563v2.555h.9v-4.026h-.846l-1.152 1.692-1.225-1.692h-.905v4.027h.9l.005.002zm-6.487-21.241h-5.89V12.8l5.89 5.884zM55.617 4.268V0h4.286v8.57L69.99 18.704h5.89L65.775 8.571 74.294 0h-5.87l-8.52 8.57-4.287-4.302zM27.414 18.72l-4.286-.018V0l4.286 4.266v.037l8.429 8.479L41.516 7.1l5.781.037a1.294 1.294 0 00.955-.405 1.395 1.395 0 00-.001-1.913v-.018c-.257-.25-.6-.387-.954-.386-2.467 0-4.827-.018-7.291-.018l-4.16 4.174V0h11.451c1.5 0 2.937.608 3.998 1.692v.018a5.732 5.732 0 011.228 1.862c.284.698.431 1.446.432 2.202 0 .484-.055.967-.166 1.438a5.687 5.687 0 013.17 1.618 5.814 5.814 0 011.545 2.958 5.894 5.894 0 01-.322 3.336 5.748 5.748 0 01-2.082 2.59 5.56 5.56 0 01-3.139.972l-11.887.017 4.412-4.431h7.475c.352-.006.688-.151.937-.405.248-.255.39-.598.395-.958a1.36 1.36 0 00-1.332-1.36h-8.987l-2.701 2.72-4.413 4.434-8.446-8.477v8.495zM3.154 30.434a1.52 1.52 0 01-.972.331 1.358 1.358 0 01-1.026-.401 1.52 1.52 0 01-.396-1.067 1.46 1.46 0 01.378-1.067c.124-.134.276-.24.444-.31a1.24 1.24 0 01.529-.095c.326-.004.646.092.918.276l.325-.551a1.79 1.79 0 00-1.245-.425 1.98 1.98 0 00-.839.134 1.993 1.993 0 00-.71.473c-.371.43-.57.989-.559 1.563-.013.288.033.576.135.845.102.27.258.514.458.718.201.202.44.36.704.465.263.104.544.152.827.14.48.01.948-.16 1.314-.478l-.284-.55zm2.504-2.555v3.515h.72v-3.515h1.334v-.68H4.327v.68h1.331zm4.09 2.004h.54a1.478 1.478 0 001.1-.386 1.28 1.28 0 00.414-.956c0-.7-.396-1.361-1.6-1.361-.09 0-.307 0-.613.018h-.563v4.193h.72v-1.508h.003zm.52-2.004a.6.6 0 01.537.127.627.627 0 01.22.516.68.68 0 01-.22.523.648.648 0 01-.536.157c-.162 0-.324-.018-.522-.036V27.88h.522zm2.702 1.416a2.1 2.1 0 00.142.849c.106.27.266.513.47.714.418.394.967.61 1.535.607a2.22 2.22 0 001.527-.625 2.27 2.27 0 00.612-1.554 2.27 2.27 0 00-.612-1.553 2.218 2.218 0 00-1.534-.607 2.22 2.22 0 00-1.527.625c-.202.2-.36.44-.466.706a2.105 2.105 0 00-.147.838zm.774 0c-.016-.393.12-.776.379-1.067a1.33 1.33 0 01.99-.404 1.241 1.241 0 01.972.404 1.443 1.443 0 01.415 1.067c.014.387-.122.763-.378 1.048a1.268 1.268 0 01-1.008.424 1.222 1.222 0 01-.972-.424 1.417 1.417 0 01-.396-1.048h-.002zm7.817-.883v2.979h.72v-4.193h-.63l-2.161 2.979v-2.979h-.72v4.193h.648l2.143-2.979zm3.368-.533v3.515h.72v-3.515h1.333v-.68h-3.389v.68h1.337zm5.817 3.515v-.702h-1.729v-1.067h1.495v-.698h-1.495v-1.048h1.657v-.68h-2.377v4.192h2.45v.003zm4.755 0v-4.196h-2.576l-.072.828a9.471 9.471 0 01-.308 2.04c-.04.148-.107.285-.198.405a.354.354 0 01-.175.169.343.343 0 01-.24.013l-.018.736c.81.11 1.35-.276 1.585-2.722l.092-.788h1.189v3.515h.72zm2.972-2.1a.666.666 0 01.575.136.694.694 0 01.255.545.728.728 0 01-.245.582.693.693 0 01-.602.153s-.144 0-.396-.018v-1.359c.178-.018.325-.036.415-.036l-.002-.003zm-1.135-2.096v4.193h.45c.235.018.433.018.577.018 1.08 0 1.711-.551 1.711-1.454 0-.849-.522-1.361-1.549-1.361a3.73 3.73 0 00-.468.037v-1.433h-.722.001zm7.565 4.193v-4.193h-.704v1.711h-1.891V27.2h-.72v4.192h.72v-1.784h1.891v1.784h.703zm2.035 0l.432-1.067h1.747l.432 1.067h.774l-1.747-4.211h-.631l-1.747 4.21h.74zm1.909-1.765h-1.208l.593-1.49.615 1.49zm5.349 1.765v-4.193h-.506c-.252-.018-.432-.018-.522-.018a1.715 1.715 0 00-1.261.404 1.377 1.377 0 00-.432 1.049c.001.242.07.48.197.684.128.205.309.37.523.474l-1.045 1.6h.81l.918-1.452h.593v1.455h.724v-.003zm-1.387-2.133a.674.674 0 01-.41-.232.701.701 0 01-.1-.744.735.735 0 01.432-.391.701.701 0 01.294-.031c.09 0 .252.018.451.018v1.38h-.668.001zm8.014 2.133v-2.17l1.675 2.17h.918l-1.8-2.242 1.692-1.95h-.864l-1.622 1.985v-1.986h-.72v4.193h.721zm3.368-2.096c-.012.29.036.579.142.848a2.086 2.086 0 001.175 1.177c.263.105.544.153.826.144a2.094 2.094 0 001.53-.625 2.27 2.27 0 00.612-1.554c0-.58-.219-1.136-.611-1.553a2.115 2.115 0 00-.706-.461 2.078 2.078 0 00-.825-.146 2.106 2.106 0 00-.836.153 2.146 2.146 0 00-.713.472 2.163 2.163 0 00-.593 1.545zm.774 0a1.51 1.51 0 01.379-1.067 1.308 1.308 0 01.99-.405 1.24 1.24 0 01.973.405 1.433 1.433 0 01.396 1.066c.02.385-.11.761-.36 1.048a1.244 1.244 0 01-1.008.424 1.258 1.258 0 01-.99-.424 1.495 1.495 0 01-.38-1.047zm5.745 2.096v-3.016l1.315 1.839h.108l1.297-1.857v3.034h.72v-4.193h-.684l-1.333 1.95-1.404-1.95h-.739v4.193h.72zm8.537 0v-4.193h-3.278v4.193h.72v-3.512h1.838v3.515h.72v-.003zm2.015 0l.433-1.067h1.764l.415 1.067h.775l-1.73-4.211h-.648l-1.728 4.21h.72zm1.91-1.765h-1.207l.612-1.49.594 1.49zm6.087 1.765v-4.193h-.703v1.711H86.67V27.2h-.723v4.192h.723v-1.784h1.89v1.784h.703-.003zm4.628-2.979v2.979h.72v-4.193h-.63l-2.16 2.979v-2.979h-.722v4.193h.631l2.161-2.979zm5.115 2.979v-4.193h-.505c-.252-.018-.432-.018-.521-.018a1.716 1.716 0 00-1.261.404 1.402 1.402 0 00-.432 1.049c.001.242.07.48.197.684.127.205.309.37.523.474l-1.045 1.6h.81l.919-1.455h.593v1.455h.722zm-1.37-2.133a.673.673 0 01-.41-.232.701.701 0 01-.165-.449.732.732 0 01.23-.535.699.699 0 01.544-.182c.108 0 .252.018.45.018v1.38h-.648z" />
      </g>
      <defs>
        <clipPath id="clip0_798_10184">
          <path d="M0 0h99v40H0z" />
        </clipPath>
      </defs>
    </g>
  </symbol>
  <symbol id="vk" viewBox="0 0 16 10">
    <g>
      <path fill-rule="evenodd" clip-rule="evenodd"
        d="M14.91 9.5455H13.2718C12.6515 9.5455 12.4606 9.04403 11.3473 7.89553C10.3771 6.94115 9.94762 6.81174 9.70903 6.81174C9.37506 6.81174 9.27961 6.9088 9.27961 7.3779V8.88226C9.27961 9.28666 9.15237 9.52925 8.10264 9.52925C6.36898 9.52925 4.44446 8.46169 3.09253 6.47205C1.05668 3.56037 0.5 1.37661 0.5 0.923691C0.5 0.681052 0.595431 0.45459 1.05668 0.45459H2.69491C3.10844 0.45459 3.26748 0.648701 3.42654 1.10163C4.2377 3.47949 5.58963 5.56619 6.14631 5.56619C6.35307 5.56619 6.44851 5.46914 6.44851 4.93533V2.47658C6.38489 1.34427 5.79639 1.24721 5.79639 0.842811C5.79639 0.6487 5.95545 0.45459 6.20993 0.45459H8.78656C9.13646 0.45459 9.26371 0.6487 9.26371 1.06927V4.38534C9.26371 4.74122 9.4228 4.87063 9.51818 4.87063C9.72491 4.87063 9.89988 4.74122 10.2816 4.353C11.4586 3.01039 12.3016 0.939869 12.3016 0.939869C12.4129 0.697229 12.6038 0.470766 13.0173 0.470766H14.6555C15.1486 0.470766 15.2599 0.72958 15.1486 1.08545C14.9418 2.05601 12.9377 4.93533 12.9377 4.93533C12.7629 5.2265 12.6992 5.35591 12.9377 5.67942C13.1127 5.92206 13.6854 6.42352 14.0671 6.87644C14.7669 7.68524 15.3076 8.36463 15.4508 8.83374C15.6099 9.30284 15.3713 9.5455 14.91 9.5455Z" />
    </g>
  </symbol>
  <symbol id="whatsapp" viewBox="0 0 8 8">
    <g>
      <path
        d="M0.019043 8L0.581376 5.94567C0.234376 5.34433 0.052043 4.66267 0.0523763 3.96367C0.0533763 1.77833 1.83171 0 4.01671 0C5.07704 0.000333333 6.07238 0.413333 6.82104 1.16267C7.56938 1.912 7.98138 2.908 7.98104 3.96733C7.98004 6.153 6.20171 7.93133 4.01671 7.93133C3.35338 7.931 2.69971 7.76467 2.12071 7.44867L0.019043 8Z" />
      <path id="whatsapp__phone"
        d="M5.82451 4.79397C5.92384 4.84363 5.98984 4.8683 6.01451 4.90963C6.03951 4.95097 6.03951 5.1493 5.95684 5.38097C5.87417 5.6123 5.47851 5.82363 5.28817 5.85197C5.11751 5.8773 4.90151 5.88797 4.66417 5.81263C4.52051 5.76697 4.33584 5.70597 4.09951 5.60397C3.10584 5.17497 2.45717 4.1743 2.40751 4.1083L2.40633 4.10673C2.35281 4.03515 2.00317 3.5676 2.00317 3.08363C2.00317 2.59597 2.25917 2.35663 2.34984 2.2573C2.44051 2.15797 2.54784 2.1333 2.61384 2.1333L2.80384 2.13663C2.86451 2.13963 2.94617 2.11363 3.02684 2.30663C3.10917 2.50497 3.30717 2.99263 3.33217 3.04197C3.35717 3.09163 3.37351 3.14963 3.34051 3.21563C3.30717 3.28197 3.29084 3.3233 3.24051 3.38063C3.19084 3.43863 3.13651 3.50997 3.09184 3.5543C3.04251 3.60363 2.99084 3.6573 3.04851 3.7563C3.10617 3.85563 3.30517 4.17997 3.59951 4.44263C3.97784 4.7803 4.29717 4.88463 4.39617 4.9343C4.49517 4.98397 4.55317 4.97563 4.61084 4.90963C4.66851 4.84363 4.85851 4.6203 4.92451 4.5213C4.99084 4.42197 5.05684 4.43863 5.14751 4.47163C5.23851 4.50463 5.72551 4.7443 5.82451 4.79397Z" />
    </g>
  </symbol>
  <symbol id="telegram" viewBox="0 0 8 8">
    <g>
      <path
        d="M3.13906 5.06031L3.00673 6.92164C3.19606 6.92164 3.27806 6.84031 3.37639 6.74264L4.26406 5.89431L6.10339 7.24131C6.44073 7.42931 6.67839 7.33031 6.76939 6.93097L7.97673 1.27364L7.97706 1.27331C8.08406 0.774639 7.79673 0.579639 7.46806 0.701972L0.371393 3.41897C-0.112941 3.60697 -0.105607 3.87697 0.289059 3.99931L2.10339 4.56364L6.31773 1.92664C6.51606 1.79531 6.69639 1.86797 6.54806 1.99931L3.13906 5.06031Z" />
    </g>
  </symbol>
  <symbol id="whatsapp-phone" viewBox="0 0 5 4">
    <g>
      <path
        d="M3.82451 2.79397C3.92384 2.84363 3.98984 2.8683 4.01451 2.90963C4.03951 2.95097 4.03951 3.1493 3.95684 3.38097C3.87417 3.6123 3.47851 3.82363 3.28817 3.85197C3.11751 3.8773 2.90151 3.88797 2.66417 3.81263C2.52051 3.76697 2.33584 3.70597 2.09951 3.60397C1.10584 3.17497 0.457174 2.1743 0.407507 2.1083L0.406332 2.10673C0.352809 2.03515 0.00317383 1.5676 0.00317383 1.08363C0.00317383 0.595968 0.259174 0.356634 0.349841 0.257301C0.440507 0.157967 0.54784 0.133301 0.61384 0.133301L0.803841 0.136634C0.864507 0.139634 0.946174 0.113634 1.02684 0.306634C1.10917 0.504968 1.30717 0.992634 1.33217 1.04197C1.35717 1.09163 1.37351 1.14963 1.34051 1.21563C1.30717 1.28197 1.29084 1.3233 1.24051 1.38063C1.19084 1.43863 1.13651 1.50997 1.09184 1.5543C1.04251 1.60363 0.99084 1.6573 1.04851 1.7563C1.10617 1.85563 1.30517 2.17997 1.59951 2.44263C1.97784 2.7803 2.29717 2.88463 2.39617 2.9343C2.49517 2.98397 2.55317 2.97563 2.61084 2.90963C2.66851 2.84363 2.85851 2.6203 2.92451 2.5213C2.99084 2.42197 3.05684 2.43863 3.14751 2.47163C3.23851 2.50463 3.72551 2.7443 3.82451 2.79397Z" />
    </g>
  </symbol>
  <symbol id="point" viewBox="0 0 4 4">
    <g>
      <circle cx="2" cy="2" r="2" fill="#3E3E3E" />
    </g>
  </symbol>
  <symbol id="marker" viewBox="0 0 24 24">
    <g>
      <path fill-rule="evenodd" clip-rule="evenodd"
        d="M12 2C7.58172 2 4 6.00258 4 10.5C4 14.9622 6.55332 19.8124 10.5371 21.6744C11.4657 22.1085 12.5343 22.1085 13.4629 21.6744C17.4467 19.8124 20 14.9622 20 10.5C20 6.00258 16.4183 2 12 2ZM12 12C13.1046 12 14 11.1046 14 10C14 8.89543 13.1046 8 12 8C10.8954 8 10 8.89543 10 10C10 11.1046 10.8954 12 12 12Z"
        fill="#3556A9" />
    </g>
  </symbol>
  <symbol id="arrow" viewBox="0 0 17 11">
    <g>
      <path d="M1 5.5H16M16 5.5L11.6452 1M16 5.5L11.6452 10" stroke-linecap="round"
        stroke-linejoin="round" />
    </g>
  </symbol>
  <symbol id="shield" viewBox="0 0 20 21">
    <g>
      <path
        d="M8.742 2.358L4.583 3.925c-.958.358-1.741 1.492-1.741 2.508v6.192c0 .983.65 2.275 1.441 2.867l3.584 2.675c1.175.883 3.108.883 4.283 0l3.583-2.675c.792-.592 1.442-1.884 1.442-2.867V6.433c0-1.025-.783-2.158-1.742-2.516l-4.158-1.559c-.708-.258-1.842-.258-2.533 0z"
        stroke-width="1.5" stroke-linecap="round" stroke-linejoin="round" />
      <path d="M7.542 10.392l1.341 1.341 3.584-3.583" stroke-width="1.5" stroke-linecap="round"
        stroke-linejoin="round" />
    </g>
  </symbol>
  <symbol id="timer" viewBox="0 0 20 21">
    <g>
      <path
        d="M17.292 11.542A7.294 7.294 0 0110 18.833a7.294 7.294 0 01-7.292-7.291A7.294 7.294 0 0110 4.25a7.294 7.294 0 017.292 7.292zM10 7.167v4.166"
        stroke-width="1.5" stroke-linecap="round" stroke-linejoin="round" />
      <path d="M7.5 2.167h5" stroke-width="1.5" stroke-miterlimit="10"
        stroke-linecap="round" stroke-linejoin="round" />
    </g>
  </symbol>
  <symbol id="medal" viewBox="0 0 20 20">
    <g>
      <path
        d="M10 12.5c3.107 0 5.625-2.425 5.625-5.417 0-2.991-2.518-5.416-5.625-5.416S4.375 4.092 4.375 7.083c0 2.992 2.518 5.417 5.625 5.417z"
        stroke-width="1.5" stroke-linecap="round" stroke-linejoin="round" />
      <path
        d="M6.267 11.267l-.009 6.15c0 .75.525 1.116 1.175.808l2.234-1.058a.862.862 0 01.675 0l2.241 1.058c.642.3 1.175-.058 1.175-.808v-6.3"
        stroke-width="1.5" stroke-linecap="round" stroke-linejoin="round" />
    </g>
  </symbol>
  <symbol id="home" viewBox="0 0 20 20">
    <g>
      <path
        d="M10 15v-2.5M8.392 2.35L2.617 6.975c-.65.517-1.067 1.608-.925 2.425L2.8 16.033c.2 1.184 1.333 2.142 2.533 2.142h9.334c1.191 0 2.333-.967 2.533-2.142L18.308 9.4c.134-.817-.283-1.908-.925-2.425l-5.775-4.617c-.891-.716-2.333-.716-3.216-.008z"
        stroke-width="1.5" stroke-linecap="round" stroke-linejoin="round" />
    </g>
  </symbol>
  <symbol id="mark" viewBox="0 0 70 54">
    <g>
      <path opacity=".1"
        d="M57.523 27.213c2.396.708 4.582 2.055 6.556 4.039 1.973 1.984 2.96 4.96 2.96 8.93 0 3.968-1.34 7.298-4.018 9.991C60.342 52.724 57.03 54 53.081 54c-4.088 0-7.542-1.346-10.362-4.04-2.679-2.692-4.018-6.094-4.018-10.204 0-3.402.493-6.307 1.48-8.717 1.128-2.41 2.538-5.102 4.23-8.078L57.31 0H70L57.523 27.213zm-38.701 0c2.396.708 4.582 2.055 6.556 4.039 1.974 1.984 2.96 4.96 2.96 8.93 0 3.968-1.339 7.298-4.018 9.991C21.642 52.724 18.328 54 14.38 54c-4.088 0-7.542-1.346-10.362-4.04C1.34 47.269 0 43.867 0 39.757c0-3.402.493-6.307 1.48-8.717 1.128-2.41 2.538-5.102 4.23-8.078L18.61 0H31.3L18.821 27.213z" />
    </g>
  </symbol>
  <symbol id="angle" viewBox="0 0 10 11">
    <g>
      <g clip-path="url(#clip0_795_3809)">
        <path d="M8.75 3.625L5 7.375l-3.75-3.75" stroke="#0D0D0D" stroke-linecap="round" />
      </g>
      <defs>
        <clipPath id="clip0_795_3809">
          <path fill="#fff" transform="matrix(-1 0 0 1 10 .5)" d="M0 0h10v10H0z" />
        </clipPath>
      </defs>
    </g>
  </symbol>
  <symbol id="asd" viewBox="0 0 0 0">
    <g>

    </g>
  </symbol>
</svg>