<?xml version="1.0" standalone="no"?>
<!DOCTYPE svg PUBLIC "-//W3C//DTD SVG 20010904//EN"
 "http://www.w3.org/TR/2001/REC-SVG-20010904/DTD/svg10.dtd">
<svg version="1.0" xmlns="http://www.w3.org/2000/svg"
 width="1792.000000pt" height="1792.000000pt" viewBox="0 0 1792.000000 1792.000000"
 preserveAspectRatio="xMidYMid meet">
<metadata>
Created by potrace 1.14, written by Peter Selinger 2001-2017
</metadata>
<g transform="translate(0.000000,1792.000000) scale(0.100000,-0.100000)"
fill="#000000" stroke="none">
<path d="M0 8965 c0 -1757 3 -3195 8 -3196 4 0 331 -3 727 -5 l720 -4 0 1450
c0 798 1 1450 2 1450 4 0 659 -661 2006 -2023 718 -726 860 -867 867 -862 11
7 391 390 1638 1653 295 299 590 598 656 664 l118 119 1557 0 c856 -1 1564 -2
1573 -4 10 -2 21 -6 24 -10 4 -4 15 -7 25 -7 39 0 136 -63 201 -131 37 -39 67
-74 66 -78 -1 -3 8 -26 19 -51 112 -238 -28 -546 -287 -628 -34 -11 -140 -25
-170 -23 -58 4 -320 2 -328 -3 -6 -3 -13 -3 -16 2 -5 8 -141 6 -164 -3 -6 -2
-12 -1 -12 3 0 4 -60 6 -132 4 -73 -1 -140 -2 -148 -2 -57 1 -216 1 -220 -1
-3 -1 -9 0 -15 1 -13 3 -237 3 -250 0 -5 -1 -14 -1 -20 0 -28 5 -393 2 -403
-4 -6 -3 -13 -3 -15 1 -3 5 -45 7 -94 5 -48 -1 -95 -3 -103 -2 -116 3 -321 1
-328 -4 -6 -3 -13 -3 -16 2 -5 8 -120 7 -142 -2 -8 -3 -14 -2 -14 3 0 4 -19 5
-42 1 -37 -5 -54 -18 -120 -86 -90 -93 -638 -647 -1081 -1094 -172 -173 -316
-319 -319 -325 -10 -16 4141 -6 4257 10 28 4 82 13 120 22 39 8 81 17 95 19
164 31 483 175 632 287 9 6 27 19 39 27 141 95 340 302 460 480 61 89 71 108
139 246 88 179 143 356 184 588 18 100 25 379 12 486 -14 121 -20 157 -41 249
-9 40 -18 78 -19 85 -1 6 -4 16 -8 21 -4 8 -20 64 -23 85 0 3 -10 30 -22 60
-31 76 -46 114 -48 120 -6 16 -70 144 -96 190 -32 56 -136 208 -186 270 -67
83 -236 243 -333 313 -58 43 -109 81 -115 85 -62 45 -292 154 -415 195 -112
38 -110 38 -238 64 l-82 17 5 40 c3 23 8 48 10 56 6 19 12 63 20 125 3 28 8
66 10 85 7 45 6 292 0 350 -3 25 -7 68 -10 95 -2 28 -7 61 -10 75 -3 14 -8 41
-12 60 -4 19 -8 37 -8 40 -1 3 -5 19 -9 35 -35 144 -91 295 -162 435 -52 102
-84 160 -94 170 -3 3 -23 32 -45 65 -78 117 -221 278 -341 384 -53 47 -207
156 -264 187 -19 10 -37 22 -40 25 -8 9 -171 85 -215 100 -22 7 -45 17 -51 21
-25 18 -275 84 -352 93 -20 3 -53 8 -72 12 -19 4 -955 8 -2079 8 l-2044 0 0
-53 c1 -29 3 -55 6 -58 2 -3 1 -21 -3 -40 -4 -19 -4 -36 0 -39 5 -3 5 -17 1
-33 -4 -15 -4 -41 0 -59 3 -18 4 -34 1 -37 -6 -7 -6 -105 1 -112 2 -3 1 -21
-3 -40 -4 -19 -4 -36 0 -39 5 -3 5 -17 1 -33 -4 -15 -4 -42 0 -59 4 -18 3 -48
-1 -67 -4 -19 -4 -40 0 -46 4 -7 5 -24 1 -39 -7 -25 -6 -78 3 -113 2 -10 1
-18 -2 -18 -4 0 -6 -35 -5 -77 1 -43 3 -106 4 -140 0 -34 -2 -66 -5 -72 -4 -5
-2 -12 3 -15 5 -3 5 -21 1 -41 -4 -19 -4 -37 0 -40 4 -3 4 -20 0 -39 -4 -19
-4 -40 0 -46 4 -7 5 -24 1 -39 -7 -25 -6 -78 3 -113 2 -10 1 -18 -2 -18 -4 0
-6 -35 -5 -77 1 -43 3 -106 4 -140 0 -34 -2 -66 -5 -72 -4 -5 -2 -12 4 -16 6
-4 8 -11 4 -16 -7 -13 -9 -177 -2 -185 3 -3 2 -21 -2 -40 -4 -19 -4 -36 0 -39
5 -3 5 -17 1 -33 -4 -15 -4 -41 0 -59 3 -18 4 -34 1 -37 -6 -7 -6 -105 1 -112
2 -3 1 -21 -3 -40 -4 -19 -4 -36 0 -39 5 -3 5 -18 0 -34 -4 -16 -6 -32 -3 -35
3 -2 4 -29 3 -58 0 -29 -1 -60 0 -68 0 -17 -1 -55 -3 -118 -1 -23 0 -42 3 -42
3 0 4 -29 3 -65 -1 -36 0 -65 2 -65 3 0 169 165 369 368 200 202 516 521 703
708 l338 342 1155 -3 c1568 -5 1406 0 1515 -50 135 -63 226 -188 252 -350 17
-98 -6 -228 -50 -290 -12 -16 -21 -32 -20 -35 6 -12 -86 -106 -134 -136 -112
-72 -73 -69 -813 -67 -366 0 -822 2 -1015 3 -419 2 -377 4 -401 -19 -86 -82
-1420 -1434 -1422 -1441 -2 -6 -8 -10 -12 -10 -5 0 -29 -21 -54 -47 -109 -117
-408 -413 -416 -413 -5 0 -57 48 -115 108 -58 59 -359 363 -668 675 -309 313
-677 685 -817 827 -140 142 -480 486 -755 765 -275 278 -501 510 -503 515 -2
6 -332 339 -733 740 l-729 730 0 -3195z"/>
<path d="M11039 12153 c-1 -5 -2 -332 -3 -728 l-1 -720 55 -56 c73 -76 1270
-1286 1339 -1355 30 -29 57 -52 60 -50 3 2 6 658 5 1458 l0 1453 -727 3 c-400
1 -727 -1 -728 -5z"/>
<path d="M15000 11769 c-431 -437 -626 -634 -1407 -1425 -298 -302 -666 -675
-818 -828 -151 -153 -275 -282 -275 -286 0 -4 145 -154 323 -333 177 -179 561
-568 854 -864 292 -296 688 -695 878 -888 953 -963 1338 -1354 1346 -1366 6
-11 199 -13 1008 -14 551 0 1001 2 1001 6 0 5 -198 206 -1490 1509 -428 432
-936 945 -1130 1140 -193 195 -453 458 -578 583 l-226 228 54 54 c49 47 486
489 1318 1333 307 311 1346 1362 1445 1462 37 37 67 70 67 74 0 3 -447 6 -992
6 l-993 -1 -385 -390z"/>
<path d="M12498 7776 c-4 -3 -3 -1996 1 -1998 11 -3 1976 -5 1982 -2 5 3 -477
491 -1582 1600 -219 221 -400 401 -401 400z"/>
</g>
</svg>
