<svg width="96" height="126" viewBox="0 0 96 126" fill="none" xmlns="http://www.w3.org/2000/svg">
<path d="M93.6613 32.7521C89.2225 18.4078 77.5535 6.73528 63.2092 2.296C48.0272 -2.40686 31.8741 0.206907 19.5445 9.2917C7.30578 18.3137 0 32.7663 0 47.9513C0 58.4268 3.3139 68.3791 9.58117 76.7305L48.0026 126L86.4239 76.7268C95.8033 64.2213 98.4429 48.193 93.6613 32.7521ZM48.0026 73.7985C33.7518 73.7985 22.1551 62.2019 22.1551 47.9511C22.1551 33.7003 33.7518 22.1036 48.0026 22.1036C62.2534 22.1036 73.85 33.7003 73.85 47.9511C73.85 62.2019 62.2534 73.7985 48.0026 73.7985Z" fill="#3556A9"/>
<path d="M47.7773 18C31.359 18 18 31.2973 18 47.7376C18 64.1779 31.359 77.5547 47.7773 77.5547C64.1957 77.5547 77.5547 64.1779 77.5547 47.7376C77.5551 31.2973 64.1957 18 47.7773 18Z" fill="#3556A9"/>
<path d="M58.7752 56.6842H64.6649L58.7752 50.8V56.6842Z" fill="white"/>
<path d="M54.4892 42.2679V38H58.7752V46.5709L67.2964 38H73.1652L64.6465 46.5709L74.7516 56.703H68.8608L58.7752 46.5709L54.4892 42.2679Z" fill="white"/>
<path d="M22 56.703L26.286 56.7212V48.2261L34.7325 56.703L39.1448 52.2697L41.8462 49.5485H50.8327C51.1846 49.5536 51.5206 49.6988 51.7694 49.9533C51.8945 50.0775 51.994 50.226 52.0621 50.3902C52.1301 50.5544 52.1652 50.7308 52.1654 50.9091C52.1603 51.2687 52.0184 51.6122 51.7697 51.8665C51.521 52.1209 51.1851 52.2662 50.8333 52.2715H43.3579L38.9456 56.703L50.8333 56.6861C51.9505 56.6868 53.0428 56.3487 53.972 55.7146C54.9013 55.0806 55.6257 54.179 56.0537 53.124C56.4816 52.0689 56.5939 50.9078 56.3763 49.7876C56.1587 48.6673 55.621 47.6381 54.8312 46.8303C53.9683 45.9622 52.8587 45.3958 51.6615 45.2121C51.7721 44.7411 51.8276 44.2583 51.8269 43.7739C51.8264 43.018 51.6795 42.2696 51.3946 41.5721C51.1097 40.8745 50.6925 40.2415 50.167 39.7097V39.6915C49.1064 38.6081 47.6683 37.9997 46.169 38H34.7171V46.5709L38.8774 42.397C41.3423 42.397 43.7018 42.4152 46.169 42.4152C46.5239 42.4137 46.8657 42.5519 47.1235 42.8012V42.8194C47.3661 43.0759 47.5018 43.4189 47.5018 43.7758C47.5018 44.1326 47.3661 44.4756 47.1235 44.7321C46.9992 44.8618 46.8507 44.9645 46.6866 45.0341C46.5226 45.1036 46.3466 45.1386 46.169 45.137L40.3879 45.1L34.7147 50.7818L26.286 42.303V42.2661L22 38V56.703Z" fill="white"/>
</svg>
